<svg version="1.1" xmlns="http://www.w3.org/2000/svg" xmlns:xlink="http://www.w3.org/1999/xlink" width="89.27344" height="89.91753" viewBox="0,0,89.27344,89.91753"><g transform="translate(-191.5,-131)"><g data-paper-data="{&quot;isPaintingLayer&quot;:true}" fill-rule="nonzero" stroke-miterlimit="10" stroke-dasharray="" stroke-dashoffset="0" style="mix-blend-mode: normal"><path d="M191.5,220.91753v-89.91753h89v89.91753z" fill="#ffffff" stroke="none" stroke-width="0" stroke-linecap="butt" stroke-linejoin="miter"/><path d="M191.97344,219.65234v-28h88.8v28z" fill="#cccccc" stroke="none" stroke-width="0" stroke-linecap="butt" stroke-linejoin="miter"/><path d="M224.28851,177.52889v0c-1.14819,-1.53997 2.56063,-3.70707 3.0986,-1.49828c0.39222,1.61135 1.88857,4.9975 1.88857,4.9975c0,0 5.41556,-0.5081 5.16506,1.6428c-0.25182,2.14844 -3.40945,1.25741 -3.40945,1.25741c0,0 0.87439,3.63297 -0.45616,4.21131c-1.33055,0.57843 -2.54671,-2.50536 -2.54671,-2.50536c0,0 -0.98405,1.96757 -2.0676,1.41174c-0.54296,-0.27818 -0.33362,-2.09528 0.45099,-3.58795c0.7847,-1.49022 -2.12331,-5.92918 -2.12331,-5.92918z" fill="#7f7f7f" stroke="#000000" stroke-width="1.39668" stroke-linecap="butt" stroke-linejoin="miter"/><path d="M227.42486,153.55538v0c-0.65726,1.80457 -4.505,-0.1044 -2.9532,-1.76656c1.1319,-1.21248 3.14038,-4.32229 3.14038,-4.32229c0,0 -3.3985,-4.24854 -1.46281,-5.22033c1.93394,-0.96934 2.92237,2.15957 2.92237,2.15957c0,0 2.55625,-2.72521 3.77005,-1.93158c1.21449,0.79609 -0.69527,3.50544 -0.69527,3.50544c0,0 2.18602,-0.25628 2.31591,0.95296c0.06499,0.60672 -1.56887,1.42987 -3.24688,1.5934c-1.67617,0.1623 -3.79054,5.02939 -3.79054,5.02939z" fill="#7f7f7f" stroke="#000000" stroke-width="1.39668" stroke-linecap="butt" stroke-linejoin="miter"/><path d="M244.09538,155.21798v0c-0.65665,1.80457 -4.50377,-0.10449 -2.9532,-1.76665c1.13129,-1.21239 3.1409,-4.32229 3.1409,-4.32229c0,0 -3.39964,-4.24845 -1.46272,-5.22033c1.93333,-0.96934 2.92176,2.15965 2.92176,2.15965c0,0 2.55503,-2.72521 3.76943,-1.93158c1.21572,0.79609 -0.69466,3.50544 -0.69466,3.50544c0,0 2.18593,-0.25628 2.31591,0.95287c0.06499,0.60672 -1.56887,1.42987 -3.24688,1.5934c-1.67617,0.16239 -3.79054,5.02947 -3.79054,5.02947z" fill="#7f7f7f" stroke="#000000" stroke-width="1.39668" stroke-linecap="butt" stroke-linejoin="miter"/><path d="M240.56839,177.91577v0c-1.50853,-1.18874 1.50791,-4.24539 2.60267,-2.25162c0.79679,1.4537 3.12102,4.33516 3.12102,4.33516c0,0 5.09963,-1.89943 5.41661,0.24367c0.31514,2.1389 -2.96511,2.09939 -2.96511,2.09939c0,0 1.78828,3.28104 0.65498,4.18521c-1.13566,0.90601 -3.1127,-1.7564 -3.1127,-1.7564c0,0 -0.4389,2.1565 -1.62826,1.90083c-0.5977,-0.1277 -0.86721,-1.93613 -0.49829,-3.58235c0.37023,-1.64324 -3.59093,-5.17391 -3.59093,-5.17391z" fill="#7f7f7f" stroke="#000000" stroke-width="1.39668" stroke-linecap="butt" stroke-linejoin="miter"/><path d="M254.00315,172.31619c-2.58936,3.18741 -9.72655,7.56208 -23.53881,6.47616c-13.81217,-1.0853 -17.00764,-9.65017 -15.36178,-18.12141c1.64709,-8.4694 9.49733,-12.68877 20.91871,-10.33204c10.75238,3.19056 11.86072,3.36933 15.56533,5.28173c8.71307,4.49808 5.28067,13.17007 2.41655,16.69557v0zM230.46372,178.79235c-13.81217,-1.0853 -17.00826,-9.65017 -15.36117,-18.12202c1.64586,-8.4694 9.49672,-12.68877 20.91809,-10.33204" fill="#7f7f7f" stroke="#000000" stroke-width="1.39668" stroke-linecap="butt" stroke-linejoin="miter"/><g stroke-linejoin="miter"><path d="M276.19976,176.94144c-2.49012,-1.4692 -3.02047,-3.71539 -3.02047,-3.71539" fill="none" stroke="#000000" stroke-width="0.69834" stroke-linecap="round"/><path d="M278.87452,174.5086c-2.85064,-0.4947 -4.14037,-2.40578 -4.14037,-2.40578" fill="none" stroke="#000000" stroke-width="0.69834" stroke-linecap="round"/><path d="M273.75413,158.44042c0,0 0.48252,-2.25723 2.94295,-3.77705" fill="none" stroke="#000000" stroke-width="0.69834" stroke-linecap="round"/><path d="M275.23971,160.18614c0,0 1.2504,-1.93797 4.09027,-2.49091" fill="none" stroke="#000000" stroke-width="0.69834" stroke-linecap="round"/><path d="M263.2858,176.24442v0c-5.5592,-0.60427 -10.2138,-4.88688 -10.47411,-10.64754c-0.26022,-5.76074 6.35555,-10.7515 9.70115,-10.78671c0,0 3.52305,-1.67941 8.03041,1.01917c2.15493,1.28973 6.36519,4.00977 6.4145,10.19103c0.03556,4.26501 -2.23551,6.58232 -4.59784,8.0008c-5.13572,3.08292 -9.07411,2.22324 -9.07411,2.22324z" fill="#7f7f7f" stroke="#000000" stroke-width="1.39668" stroke-linecap="butt"/><path d="M275.06611,166.17452c-0.00815,-0.79144 0.20461,-1.51115 0.55461,-2.03405c0.35,-0.52299 0.83717,-0.84978 1.37907,-0.85538c0.54191,-0.00561 1.03573,0.31102 1.3965,0.82665c0.36069,0.51554 0.58833,1.2307 0.59647,2.02214c0.00823,0.79144 -0.20452,1.51115 -0.55452,2.03414c-0.35,0.52299 -0.83717,0.84978 -1.37907,0.85538c-0.54191,0.00561 -1.03573,-0.31102 -1.3965,-0.82665c-0.36069,-0.51563 -0.58833,-1.23079 -0.59656,-2.02223z" fill="#000000" stroke="#000000" stroke-width="1.39668" stroke-linecap="butt"/><g stroke-width="0.69834" stroke-linecap="butt"><path d="M264.59191,161.07016c-0.00815,-0.79144 0.30612,-1.51221 0.82,-2.03747c0.51449,-0.52465 1.2286,-0.85381 2.02004,-0.86204c0.79144,-0.00815 1.51221,0.30612 2.03747,0.82c0.52465,0.51449 0.85381,1.2286 0.86204,2.02004c0.00815,0.79144 -0.30612,1.51221 -0.82,2.03747c-0.51449,0.52465 -1.2286,0.85381 -2.02004,0.86204c-0.79144,0.00815 -1.51229,-0.30612 -2.03747,-0.82c-0.52465,-0.51449 -0.85381,-1.2286 -0.86204,-2.02004z" fill="#ffffff" stroke="#000000"/><path d="M266.21649,160.41229c-0.00508,-0.49365 0.19085,-0.94341 0.51169,-1.27029c0.32022,-0.32749 0.76587,-0.5328 1.25943,-0.53788c0.49356,-0.00508 0.94332,0.19085 1.27029,0.51169c0.32749,0.32022 0.53271,0.76578 0.53788,1.25943c0.00508,0.49356 -0.19094,0.94332 -0.51169,1.27029c-0.32022,0.32749 -0.76587,0.53271 -1.25943,0.53779c-0.49356,0.00517 -0.94341,-0.19085 -1.27029,-0.51169c-0.32749,-0.32013 -0.5328,-0.76578 -0.53788,-1.25934z" fill="#000000" stroke="none"/><g stroke="none"><path d="M264.86545,164.21325c0,0 -4.57839,-2.82515 -0.06587,-6.36703c0,-0.00061 1.45256,3.52357 0.06587,6.36703v0z" fill="#58595b"/><path d="M265.88015,161.24455c0.0247,2.39273 -0.73714,3.4839 -0.77034,3.53137c-0.14767,0.20583 -0.4347,0.25287 -0.64053,0.10572c-0.20461,-0.14715 -0.25217,-0.42988 -0.10817,-0.63685c0.01445,-0.02163 0.70999,-1.08399 0.58763,-3.44807c-0.1214,-2.27851 -0.5462,-2.83872 -0.55058,-2.84424c-0.1792,-0.17614 -0.17412,-0.45633 0.00438,-0.63738c0.17737,-0.18104 0.47779,-0.17255 0.65892,0.00482c0.1538,0.15065 0.66567,0.84268 0.80309,3.42872c0.0085,0.17062 0.01393,0.33695 0.01559,0.49592v0v0z" fill="#000000"/></g></g><g stroke-width="0.69834" stroke-linecap="butt"><path d="M264.5384,171.20829c-0.00815,-0.79144 0.30612,-1.51229 0.82,-2.03747c0.51449,-0.52465 1.22868,-0.85381 2.02013,-0.86204c0.79144,-0.00815 1.51221,0.30612 2.03747,0.82c0.52465,0.51449 0.85372,1.2286 0.86195,2.02004c0.00815,0.79144 -0.30612,1.51221 -0.82,2.03747c-0.51449,0.52465 -1.2286,0.85381 -2.02004,0.86204c-0.79144,0.00815 -1.51221,-0.30612 -2.03747,-0.82c-0.52465,-0.51449 -0.85381,-1.2286 -0.86204,-2.02004z" fill="#ffffff" stroke="#000000"/><path d="M266.09334,170.49664c-0.00517,-0.49356 0.19085,-0.94332 0.51169,-1.27029c0.32013,-0.32749 0.76578,-0.53271 1.25943,-0.53779c0.49356,-0.00517 0.94332,0.19085 1.2702,0.51169c0.32758,0.32013 0.5328,0.76578 0.53788,1.25934c0.00517,0.49365 -0.19085,0.94341 -0.51169,1.27029c-0.32013,0.32749 -0.76578,0.5328 -1.25934,0.53788c-0.49365,0.00508 -0.94341,-0.19085 -1.27029,-0.51169c-0.32758,-0.32022 -0.5328,-0.76578 -0.53788,-1.25943z" fill="#000000" stroke="none"/><g stroke="none"><path d="M265.15712,174.60407c0,0 -4.8479,-2.3336 -0.72794,-6.32595c0,0 1.80983,3.35418 0.72794,6.32595v0z" fill="#58595b"/><path d="M265.85581,171.54576c0.27362,2.37722 -0.37006,3.54118 -0.39888,3.59286c-0.1256,0.21967 -0.40615,0.29727 -0.6252,0.17229c-0.21844,-0.12499 -0.29657,-0.40247 -0.17351,-0.62275c0.01261,-0.02277 0.59306,-1.15187 0.22571,-3.48959c-0.35788,-2.25346 -0.83787,-2.76778 -0.84347,-2.77268c-0.1955,-0.15634 -0.22107,-0.43505 -0.06219,-0.63361c0.15757,-0.19865 0.45703,-0.22133 0.65568,-0.06429c0.16834,0.1334 0.74993,0.76902 1.15502,3.32606c0.0268,0.16975 0.0487,0.33406 0.06683,0.49172v0v0z" fill="#000000"/></g></g><path d="M263.71831,174.8875c0,0 0.05115,4.93952 -3.49852,7.95211c-2.62983,2.23051 -7.32051,1.61784 -9.61295,-1.20398c-2.29375,-2.82191 -1.32048,-7.48325 2.43766,-9.62574c2.99971,-1.71138 6.77352,-1.5101 6.77352,-1.5101" fill="#57595b" stroke="#000000" stroke-width="1.39668" stroke-linecap="butt"/><path d="M259.46014,162.21879c0,0 -4.92288,0.42104 -8.19175,-2.89355c-2.42207,-2.45596 -2.16079,-7.17967 0.48095,-9.67706c2.64174,-2.49669 7.36308,-1.87456 9.78147,1.71182c1.93079,2.8629 2.01277,6.6417 2.01277,6.6417" fill="#57595b" stroke="#000000" stroke-width="1.39668" stroke-linecap="butt"/></g><path d="M217.32379,166.48283c-4.3257,1.49022 -12.82523,3.55029 -19.70929,-3.48696c-9.46273,-9.67443 -1.36865,-25.62183 -1.2871,-25.77677c0,0 -7.18965,15.20517 1.64928,24.24381c6.41231,6.55587 14.64549,4.11619 18.69757,2.71934c2.05437,0.73845 0.75658,2.24015 0.75658,2.24015c0,0 0.00026,0.02391 -0.10703,0.06044v0z" fill="#58595b" stroke="#000000" stroke-width="1.39668" stroke-linecap="butt" stroke-linejoin="round"/><text transform="translate(208.77344,211.65234) scale(0.5,0.5)" font-size="40" xml:space="preserve" fill="#ffffff" fill-rule="nonzero" stroke="none" stroke-width="1" stroke-linecap="butt" stroke-linejoin="miter" stroke-miterlimit="10" stroke-dasharray="" stroke-dashoffset="0" font-family="Sans Serif" font-weight="normal" text-anchor="start" style="mix-blend-mode: normal"><tspan x="0" dy="0">ねずみ</tspan></text></g></g></svg>