<svg version="1.1" xmlns="http://www.w3.org/2000/svg" xmlns:xlink="http://www.w3.org/1999/xlink" width="83.47341" height="141.81095" viewBox="0,0,83.47341,141.81095"><g transform="translate(-198.15342,-108.75873)"><g data-paper-data="{&quot;isPaintingLayer&quot;:true}" fill-rule="evenodd" stroke-miterlimit="10" stroke-dasharray="" stroke-dashoffset="0" style="mix-blend-mode: normal"><path d="M281.12271,187.01486c0.27748,0.42996 0.12501,1.13738 -0.44475,1.27083l-15.23913,3.46347c0,0 -6.80496,8.98279 -11.52808,11.60931c-7.87258,4.42482 -14.26057,4.47162 -14.26057,4.47162c0,0 -3.13013,10.0311 -11.24426,11.61353c-8.11413,1.58243 -23.34723,-4.88979 -28.20051,-31.64675c-4.85327,-26.75695 2.70319,-48.07732 19.03079,-57.91187c16.3276,-9.83454 35.39041,6.34661 34.26783,5.47825l25.44596,-2.60176c0.56975,-0.13346 0.9849,0.58243 0.69263,1.14583l-11.46649,17.00393c0,0 2.31734,6.42181 2.50181,13.09572c0.22464,3.97766 -0.1099,7.37923 -0.72614,10.63468z" fill="#ffab19" stroke="#001026" stroke-width="1.2" stroke-linecap="butt" stroke-linejoin="miter"/><path d="M239.08885,207.39589c0,0 -2.70018,9.75362 -10.81432,11.33606c-8.11413,1.58243 -22.62924,-5.44685 -27.34482,-31.91788c-6.58394,-34.44748 14.09389,-50.46258 28.99456,-40.73071c15.04258,9.734 1.88587,25.86112 2.55979,37.7941c0.55737,10.22796 9.48068,11.49638 6.60478,23.51843z" fill="#ffab19" stroke="none" stroke-width="1" stroke-linecap="butt" stroke-linejoin="miter"/><path d="M224.57042,162.46866c0.56763,0.00845 0.9849,0.58243 0.83453,1.14795c-1.03351,2.68146 -3.41817,10.31069 -4.11262,18.81674c-0.53986,7.65671 -0.18176,12.20411 0.21227,14.33907c0.13135,0.71165 -0.58665,1.26872 -1.29197,0.97434c-3.8125,-1.33424 -14.37531,-6.88527 -13.30195,-21.77295c1.61142,-12.89252 10.71256,-14.03443 17.65973,-13.50514z" fill="#ffffff" stroke="#001026" stroke-width="1.2" stroke-linecap="round" stroke-linejoin="round"/><path d="M238.59336,246.67248c-10.81954,-13.02958 -10.81577,-32.74285 -10.81577,-32.74285" fill="none" stroke="#333333" stroke-width="1.2" stroke-linecap="round" stroke-linejoin="round"/><path d="M215.79542,249.96968c-1.96109,-24.07019 7.07296,-38.81815 7.07296,-38.81815" fill="none" stroke="#333333" stroke-width="1.2" stroke-linecap="round" stroke-linejoin="round"/><path d="M247.28718,113.36035c0,0 -7.94948,23.23504 -16.50724,32.61187" fill="none" stroke="#333333" stroke-width="1.2" stroke-linecap="round" stroke-linejoin="round"/><path d="M222.1541,150.59193c-10.13576,-15.28836 -3.04359,-41.2332 -3.04359,-41.2332" fill="none" stroke="#333333" stroke-width="1.2" stroke-linecap="round" stroke-linejoin="round"/></g></g></svg>