<svg version="1.1" xmlns="http://www.w3.org/2000/svg" xmlns:xlink="http://www.w3.org/1999/xlink" width="89.27344" height="89.91753" viewBox="0,0,89.27344,89.91753"><g transform="translate(-191.5,-131)"><g data-paper-data="{&quot;isPaintingLayer&quot;:true}" fill-rule="nonzero" stroke-linejoin="miter" stroke-miterlimit="10" stroke-dasharray="" stroke-dashoffset="0" style="mix-blend-mode: normal"><path d="M191.5,220.91753v-89.91753h89v89.91753z" fill="#ffffff" stroke="none" stroke-width="0" stroke-linecap="butt"/><path d="M191.97344,219.65234v-28h88.8v28z" fill="#cccccc" stroke="none" stroke-width="0" stroke-linecap="butt"/><text transform="translate(195.77344,206.40318) scale(0.23333,0.23333)" font-size="40" xml:space="preserve" fill="#ffffff" fill-rule="nonzero" stroke="none" stroke-width="1" stroke-linecap="butt" stroke-linejoin="miter" stroke-miterlimit="10" stroke-dasharray="" stroke-dashoffset="0" font-family="Sans Serif" font-weight="normal" text-anchor="start" style="mix-blend-mode: normal"><tspan x="0" dy="0">弖辴弖豸(てちてち)</tspan></text><path d="M211.68336,188.72771c0.57003,-1.09966 1.11615,-2.14643 1.42683,-2.64797c0.81801,-1.32054 1.8703,-2.58181 2.69165,-3.90155c3.74213,-6.01288 6.578,-12.21281 10.36963,-18.21632c1.21716,-1.9272 2.2418,-3.84978 3.22882,-5.78918h8.88601c0.6644,1.11638 1.36572,2.22545 1.93265,3.36174c4.31527,8.64907 9.52308,17.05405 15.00669,25.44428c0.0344,0.05263 0.49034,0.76123 1.12582,1.749z" fill="#ffffff" stroke="#000000" stroke-width="2" stroke-linecap="butt"/><path d="M249.94955,148.57075c0,8.82279 -7.28895,15.97508 -16.28033,15.97508c-8.99138,0 -16.28033,-7.15228 -16.28033,-15.97507c0,-8.82279 7.28895,-15.97507 16.28033,-15.97507c8.99138,0 16.28033,7.15228 16.28033,15.97508z" fill="#ffffff" stroke="#000000" stroke-width="2" stroke-linecap="butt"/><path d="M224.99527,148.0605l2.96881,-5.39712l2.60176,5.39544" fill="none" stroke="#000000" stroke-width="2" stroke-linecap="round"/><path d="M236.47841,148.07162c0.63017,-1.46188 2.5062,-5.48238 2.5062,-5.48238l2.86926,5.63364" fill="none" stroke="#000000" stroke-width="2" stroke-linecap="round"/><path d="M237.32077,152.41972l-3.5828,4.37898l-3.58281,-4.14013" fill="none" stroke="#000000" stroke-width="2" stroke-linecap="round"/></g></g></svg>