<svg version="1.1" xmlns="http://www.w3.org/2000/svg" xmlns:xlink="http://www.w3.org/1999/xlink" width="89.27344" height="89.91753" viewBox="0,0,89.27344,89.91753"><g transform="translate(-191.5,-131)"><g data-paper-data="{&quot;isPaintingLayer&quot;:true}" stroke-miterlimit="10" stroke-dasharray="" stroke-dashoffset="0" style="mix-blend-mode: normal"><path d="M191.5,220.91753v-89.91753h89v89.91753z" fill="#ffffff" fill-rule="nonzero" stroke="none" stroke-width="0" stroke-linecap="butt" stroke-linejoin="miter"/><path d="M191.97344,219.65234v-28h88.8v28z" fill="#cccccc" fill-rule="nonzero" stroke="none" stroke-width="0" stroke-linecap="butt" stroke-linejoin="miter"/><path d="M241.52742,138.66575c0.26083,-0.16044 0.68209,-0.06005 0.75454,0.28256l1.87459,9.16209c0,0 5.28598,4.18767 6.79615,7.04744c2.54522,4.76733 2.49042,8.58971 2.49042,8.58971c0,0 5.96079,2.0027 6.80235,6.8777c0.84156,4.875 -3.22806,13.9047 -19.299,16.46149c-16.07094,2.55678 -28.72845,-2.24041 -34.40059,-12.13629c-5.67213,-9.89588 4.25574,-21.09096 3.72167,-20.4306l-1.22675,-15.25742c-0.07246,-0.3426 0.36122,-0.58169 0.6945,-0.39953l10.02441,7.08052c0,0 3.87205,-1.30317 7.86728,-1.32703c2.38265,-0.08284 4.41339,0.1614 6.35306,0.57227z" fill="#ffab19" fill-rule="evenodd" stroke="#001026" stroke-width="1.2" stroke-linecap="butt" stroke-linejoin="miter"/><path d="M253.17607,164.07775c0,0 5.80035,1.74187 6.64192,6.61688c0.84156,4.875 -3.55203,13.46792 -19.45012,15.94603c-20.69443,3.49252 -30.00785,-9.08611 -23.99238,-17.87467c6.01859,-8.87344 15.49652,-0.79307 22.64447,-1.04159c6.12636,-0.20089 7.00089,-5.52305 14.15611,-3.64664z" fill="#ffab19" fill-rule="evenodd" stroke="none" stroke-width="1" stroke-linecap="butt" stroke-linejoin="miter"/><path d="M226.10902,172.18145c0.01241,-0.33949 0.36122,-0.58169 0.69761,-0.4844c1.59086,0.65308 6.12433,2.17865 11.20429,2.70437c4.57383,0.42223 7.29907,0.26693 8.58147,0.05886c0.42747,-0.06936 0.75144,0.36742 0.56618,0.78558c-0.84766,2.26363 -4.30562,8.51115 -13.19864,7.67602c-7.69239,-1.13118 -8.25761,-6.59097 -7.8509,-10.74043z" fill="#ffffff" fill-rule="evenodd" stroke="#001026" stroke-width="1.2" stroke-linecap="round" stroke-linejoin="round"/><path d="M276.66787,164.88328c-7.93552,6.30418 -19.72944,6.04641 -19.72944,6.04641" fill="none" fill-rule="evenodd" stroke="#333333" stroke-width="1.2" stroke-linecap="round" stroke-linejoin="round"/><path d="M278.34501,178.56547c-14.42603,0.86128 -23.13228,-4.73472 -23.13228,-4.73472" fill="none" fill-rule="evenodd" stroke="#333333" stroke-width="1.2" stroke-linecap="round" stroke-linejoin="round"/><path d="M197.02316,157.95404c0,0 13.79792,5.05714 19.29693,10.29858" fill="none" fill-rule="evenodd" stroke="#333333" stroke-width="1.2" stroke-linecap="round" stroke-linejoin="round"/><path d="M218.97214,173.47313c-9.27803,5.86582 -24.70827,1.28646 -24.70827,1.28646" fill="none" fill-rule="evenodd" stroke="#333333" stroke-width="1.2" stroke-linecap="round" stroke-linejoin="round"/><text transform="translate(196.77344,211.65234) scale(0.5,0.5)" font-size="40" xml:space="preserve" fill="#ffffff" fill-rule="nonzero" stroke="none" stroke-width="1" stroke-linecap="butt" stroke-linejoin="miter" stroke-miterlimit="10" stroke-dasharray="" stroke-dashoffset="0" font-family="Sans Serif" font-weight="normal" text-anchor="start" style="mix-blend-mode: normal"><tspan x="0" dy="0">まるねこ</tspan></text></g></g></svg>