<svg version="1.1" xmlns="http://www.w3.org/2000/svg" xmlns:xlink="http://www.w3.org/1999/xlink" width="127.05291" height="101.74553" viewBox="0,0,127.05291,101.74553"><g transform="translate(-176.43903,-129.25226)"><g data-paper-data="{&quot;isPaintingLayer&quot;:true}" fill-rule="nonzero" stroke="#000000" stroke-width="2" stroke-linejoin="miter" stroke-miterlimit="10" stroke-dasharray="" stroke-dashoffset="0" style="mix-blend-mode: normal"><path d="M177.4899,130.86497c2.45844,1.17849 4.79887,2.308 5.92362,2.95703c2.96143,1.70887 5.80855,3.93721 8.76845,5.65347c13.48559,7.8194 27.32039,13.63217 40.78877,21.56113c4.32351,2.54529 8.62363,4.66736 12.95816,6.7055l0.61078,19.54927c-2.41037,1.53842 -4.80212,3.15757 -7.263,4.48291c-18.7314,10.08812 -36.86445,22.12304 -54.94609,34.76374c-0.11343,0.07929 -1.64101,1.13108 -3.77041,2.59701z" fill="#ffffff" stroke-linecap="butt"/><path d="M268.46572,212.2906c-19.41019,0.60644 -35.64627,-14.93767 -36.2643,-34.71877c-0.61803,-19.78109 14.61603,-36.30845 34.02622,-36.91489c19.41019,-0.60644 35.64627,14.93769 36.2643,34.71878c0.61803,19.78109 -14.61603,36.30844 -34.02622,36.91488z" fill="#ffffff" stroke-linecap="butt"/><path d="M267.87301,157.35597l12.07776,6.16042l-11.69117,6.09476" fill="none" stroke-linecap="round"/><path d="M268.63785,182.6197c3.25947,1.2859 12.23352,5.13683 12.23352,5.13683l-12.19681,6.69961" fill="none" stroke-linecap="round"/><path d="M259.12991,184.77177l-9.88006,-7.5812l8.86204,-8.16676" fill="none" stroke-linecap="round"/></g></g></svg>